<?xml version="1.0" encoding="UTF-8" standalone="no"?>
<svg width="16px" height="16px" viewBox="0 0 16 16" version="1.1" xmlns="http://www.w3.org/2000/svg" xmlns:xlink="http://www.w3.org/1999/xlink">
    <!-- Generator: Sketch 3.6.1 (26313) - http://www.bohemiancoding.com/sketch -->
    <title>Invalid 16</title>
    <desc>Created with Sketch.</desc>
    <defs></defs>
    <g id="Page-1" stroke="none" stroke-width="1" fill="none" fill-rule="evenodd">
        <g id="Invalid-16" fill="#F16969">
            <path d="M11.96875,10.3541667 C11.96875,10.53125 11.8958333,10.7083333 11.7708333,10.8333333 L10.8333333,11.7708333 C10.7083333,11.8958333 10.53125,11.96875 10.3541667,11.96875 C10.1770833,11.96875 10.0104167,11.8958333 9.88541667,11.7708333 L8,9.88541667 L6.11458333,11.7708333 C5.98958333,11.8958333 5.82291667,11.96875 5.64583333,11.96875 C5.46875,11.96875 5.29166667,11.8958333 5.16666667,11.7708333 L4.22916667,10.8333333 C4.10416667,10.7083333 4.03125,10.53125 4.03125,10.3541667 C4.03125,10.1770833 4.10416667,10.0104167 4.22916667,9.88541667 L6.11458333,8 L4.22916667,6.11458333 C4.10416667,5.98958333 4.03125,5.82291667 4.03125,5.64583333 C4.03125,5.46875 4.10416667,5.29166667 4.22916667,5.16666667 L5.16666667,4.22916667 C5.29166667,4.10416667 5.46875,4.03125 5.64583333,4.03125 C5.82291667,4.03125 5.98958333,4.10416667 6.11458333,4.22916667 L8,6.11458333 L9.88541667,4.22916667 C10.0104167,4.10416667 10.1770833,4.03125 10.3541667,4.03125 C10.53125,4.03125 10.7083333,4.10416667 10.8333333,4.22916667 L11.7708333,5.16666667 C11.8958333,5.29166667 11.96875,5.46875 11.96875,5.64583333 C11.96875,5.82291667 11.8958333,5.98958333 11.7708333,6.11458333 L9.88541667,8 L11.7708333,9.88541667 C11.8958333,10.0104167 11.96875,10.1770833 11.96875,10.3541667 L11.96875,10.3541667 Z M16,8 C16,3.58333333 12.4166667,1.42108547e-14 8,1.42108547e-14 C3.58333333,1.42108547e-14 0,3.58333333 0,8 C0,12.4166667 3.58333333,16 8,16 C12.4166667,16 16,12.4166667 16,8 L16,8 Z" id="Times-Circle---FontAwesome"></path>
        </g>
    </g>
</svg>