<?xml version="1.0" encoding="UTF-8" standalone="no"?>
<svg width="16px" height="16px" viewBox="0 0 16 16" version="1.1" xmlns="http://www.w3.org/2000/svg" xmlns:xlink="http://www.w3.org/1999/xlink">
    <!-- Generator: Sketch 3.6.1 (26313) - http://www.bohemiancoding.com/sketch -->
    <title>Required 16</title>
    <desc>Created with Sketch.</desc>
    <defs></defs>
    <g id="Page-1" stroke="none" stroke-width="1" fill="none" fill-rule="evenodd">
        <g id="Required-16" fill="#F18969">
            <path d="M14.8296517,9.60416667 L12.0588183,8 L14.8296517,6.39583333 C15.4650683,6.03125 15.6838183,5.20833333 15.319235,4.57291667 L14.6525683,3.42708333 C14.287985,2.79166667 13.4650683,2.57291667 12.8296517,2.9375 L10.0588183,4.53125 L10.0588183,1.33333333 C10.0588183,0.604166667 9.45465167,0 8.72548501,0 L7.39215167,0 C6.66298501,0 6.05881834,0.604166667 6.05881834,1.33333333 L6.05881834,4.53125 L3.28798501,2.9375 C2.65256834,2.57291667 1.82965167,2.79166667 1.46506834,3.42708333 L0.798401673,4.57291667 C0.43381834,5.20833333 0.65256834,6.03125 1.28798501,6.39583333 L4.05881834,8 L1.28798501,9.60416667 C0.65256834,9.96875 0.43381834,10.7916667 0.798401673,11.4270833 L1.46506834,12.5729167 C1.82965167,13.2083333 2.65256834,13.4270833 3.28798501,13.0625 L6.05881834,11.46875 L6.05881834,14.6666667 C6.05881834,15.3958333 6.66298501,16 7.39215167,16 L8.72548501,16 C9.45465167,16 10.0588183,15.3958333 10.0588183,14.6666667 L10.0588183,11.46875 L12.8296517,13.0625 C13.4650683,13.4270833 14.287985,13.2083333 14.6525683,12.5729167 L15.319235,11.4270833 C15.6838183,10.7916667 15.4650683,9.96875 14.8296517,9.60416667 L14.8296517,9.60416667 Z" id="asterisk---FontAwesome"></path>
        </g>
    </g>
</svg>